<svg xmlns="http://www.w3.org/2000/svg" viewBox="0 0 180 40" role="img" aria-labelledby="logoTitle logoDesc">
  <title id="logoTitle">Letsdoo</title>
  <desc id="logoDesc">Logo Letsdoo nouvelle identité bleue et turquoise</desc>
  <defs>
    <linearGradient id="g" x1="0%" x2="100%" y1="0%" y2="100%">
      <stop offset="0%" stop-color="#0F62FE" />
      <stop offset="100%" stop-color="#31C6D4" />
    </linearGradient>
  </defs>
  <g fill="none" fill-rule="evenodd">
    <path d="M12 4a8 8 0 0 1 8 8v16a8 8 0 0 1-16 0V12a8 8 0 0 1 8-8Z" fill="url(#g)" />
    <path d="M12 12a4 4 0 0 1 4 4v12a4 4 0 0 1-8 0V16a4 4 0 0 1 4-4Z" fill="#fff" opacity="0.9" />
    <path d="M38 8h8v20h12v6H38V8Zm28 0h8v26h-8V8Zm16 0h7.2l7.4 12.2V8h7.8v26h-7.2L95 21.8V34h-7.8V8Zm46.8 0c8.4 0 13.6 5 13.6 13s-5.2 13-13.6 13h-12.6V8h12.6Zm0 6h-4.6v14h4.6c4 0 6.2-2.6 6.2-7s-2.2-7-6.2-7Zm24.2-6c7.8 0 12.6 4.6 12.6 11.8v2.4h-18.8c.4 3 2.6 4.8 6.4 4.8 2.6 0 5.4-.8 8-2.4v5.8c-2.4 1.6-5.6 2.6-9.4 2.6-8.4 0-13.6-5-13.6-13s5-12 12.8-12Zm-6 10h10.6c-.2-2.8-2-4.6-5-4.6-2.8 0-4.8 1.6-5.6 4.6Z" fill="#0F62FE" />
  </g>
</svg>
